<svg xmlns="http://www.w3.org/2000/svg" width="32" height="32" class="icon" viewBox="0 0 1024 1024"><path fill="#FFCE54" d="M896.23 629.45H849l-47.52 165.99 71.12 47.43 71.15-47.43z"/><path fill="#434A54" d="M872.6 167.06c-39.29 0-71.12 31.85-71.12 71.15v480.16h142.27V238.2c0-39.3-31.84-71.14-71.15-71.14"/><path fill="#ED5564" d="M543.57 219.3c-52.23 0-99.47 21.48-133.36 56.06-33.89-34.58-81.13-56.06-133.39-56.06-103.14 0-186.74 83.6-186.74 186.73 0 213.42 320.13 400.14 320.13 400.14s320.1-186.73 320.1-400.14c0-103.13-83.6-186.73-186.74-186.73"/><path fill="#E6E9ED" d="M90.08 406.03c0 81.3 46.45 158.71 103.97 223.42h432.3c57.5-64.71 103.95-142.13 103.95-223.42 0-8.66-.6-17.19-1.75-25.56H91.83c-1.15 8.37-1.75 16.9-1.75 25.56"/><path fill="#434A54" d="M481.36 522.74H339.09c-4.56 0-9.09 1.73-12.58 5.21-6.93 6.94-6.93 18.21 0 25.15 3.49 3.47 8.02 5.21 12.58 5.21h142.27c4.56 0 9.12-1.74 12.58-5.21 6.95-6.94 6.95-18.21 0-25.15-3.47-3.48-8.03-5.21-12.58-5.21m101.49-65.92c-3.47-3.48-8.02-5.21-12.58-5.21h-320.1c-4.56 0-9.12 1.73-12.58 5.21-6.93 6.94-6.93 18.21 0 25.15 3.47 3.47 8.02 5.21 12.58 5.21h320.1c4.56 0 9.12-1.74 12.58-5.21 6.96-6.94 6.96-18.21 0-25.15"/><path d="M543.57 219.3c-5.99 0-11.91.3-17.77.85 94.78 8.96 168.95 88.76 168.95 185.88 0 182.89-235.09 346.18-302.33 389.15 11.23 7.18 17.79 10.99 17.79 10.99s320.1-186.73 320.1-400.14c0-103.13-83.6-186.73-186.74-186.73" opacity=".1"/></svg>